<mxfile host="app.diagrams.net" modified="2024-07-04T18:38:29.461Z" agent="Mozilla/5.0 (X11; CrOS x86_64 14541.0.0) AppleWebKit/537.36 (KHTML, like Gecko) Chrome/126.0.0.0 Safari/537.36" etag="4fZt9Cx41eaYsHlLzQZf" version="24.6.4" type="google">
  <diagram name="Page-1" id="42HeRTajs2h-MDuZdaqg">
    <mxGraphModel grid="1" page="1" gridSize="10" guides="1" tooltips="1" connect="1" arrows="1" fold="1" pageScale="1" pageWidth="827" pageHeight="1169" math="0" shadow="0">
      <root>
        <mxCell id="0" />
        <mxCell id="1" parent="0" />
        <mxCell id="sRkfl3_Sl9mSZS6yeD2P-1" value="Start screen&lt;div&gt;Player enters name&lt;/div&gt;&lt;div&gt;&lt;br&gt;&lt;/div&gt;" style="rounded=0;whiteSpace=wrap;html=1;" vertex="1" parent="1">
          <mxGeometry x="90" y="30" width="130" height="70" as="geometry" />
        </mxCell>
        <mxCell id="sRkfl3_Sl9mSZS6yeD2P-2" value="Game starts - switch to game room&lt;div&gt;Countdown starts&lt;/div&gt;" style="rounded=0;whiteSpace=wrap;html=1;" vertex="1" parent="1">
          <mxGeometry x="300" y="190" width="120" height="60" as="geometry" />
        </mxCell>
        <mxCell id="sRkfl3_Sl9mSZS6yeD2P-7" style="edgeStyle=orthogonalEdgeStyle;rounded=0;orthogonalLoop=1;jettySize=auto;html=1;exitX=0.5;exitY=1;exitDx=0;exitDy=0;" edge="1" parent="1" source="sRkfl3_Sl9mSZS6yeD2P-3" target="sRkfl3_Sl9mSZS6yeD2P-8">
          <mxGeometry relative="1" as="geometry">
            <mxPoint x="150" y="380" as="targetPoint" />
          </mxGeometry>
        </mxCell>
        <mxCell id="NNTbiNwH3wWB6xPEeeT0-4" style="edgeStyle=orthogonalEdgeStyle;rounded=0;orthogonalLoop=1;jettySize=auto;html=1;exitX=0.5;exitY=0;exitDx=0;exitDy=0;" edge="1" parent="1" source="sRkfl3_Sl9mSZS6yeD2P-3">
          <mxGeometry relative="1" as="geometry">
            <mxPoint x="160" y="280" as="targetPoint" />
          </mxGeometry>
        </mxCell>
        <mxCell id="sRkfl3_Sl9mSZS6yeD2P-3" value="Player clicks objects in room to find 3 hidden items" style="rounded=0;whiteSpace=wrap;html=1;" vertex="1" parent="1">
          <mxGeometry x="90" y="280" width="120" height="60" as="geometry" />
        </mxCell>
        <mxCell id="sRkfl3_Sl9mSZS6yeD2P-4" value="" style="endArrow=classic;html=1;rounded=0;exitX=0.5;exitY=1;exitDx=0;exitDy=0;entryX=0.5;entryY=0;entryDx=0;entryDy=0;" edge="1" parent="1" source="sRkfl3_Sl9mSZS6yeD2P-1" target="NNTbiNwH3wWB6xPEeeT0-1">
          <mxGeometry width="50" height="50" relative="1" as="geometry">
            <mxPoint x="390" y="260" as="sourcePoint" />
            <mxPoint x="440" y="210" as="targetPoint" />
            <Array as="points">
              <mxPoint x="160" y="130" />
              <mxPoint x="100" y="160" />
            </Array>
          </mxGeometry>
        </mxCell>
        <mxCell id="sRkfl3_Sl9mSZS6yeD2P-5" value="" style="endArrow=classic;html=1;rounded=0;exitX=0.5;exitY=1;exitDx=0;exitDy=0;entryX=0.5;entryY=0;entryDx=0;entryDy=0;" edge="1" parent="1" source="sRkfl3_Sl9mSZS6yeD2P-2" target="sRkfl3_Sl9mSZS6yeD2P-3">
          <mxGeometry width="50" height="50" relative="1" as="geometry">
            <mxPoint x="390" y="260" as="sourcePoint" />
            <mxPoint x="440" y="210" as="targetPoint" />
            <Array as="points">
              <mxPoint x="210" y="280" />
            </Array>
          </mxGeometry>
        </mxCell>
        <mxCell id="NNTbiNwH3wWB6xPEeeT0-10" style="edgeStyle=orthogonalEdgeStyle;rounded=0;orthogonalLoop=1;jettySize=auto;html=1;exitX=1;exitY=0.5;exitDx=0;exitDy=0;" edge="1" parent="1" source="sRkfl3_Sl9mSZS6yeD2P-8">
          <mxGeometry relative="1" as="geometry">
            <mxPoint x="250" y="410" as="targetPoint" />
          </mxGeometry>
        </mxCell>
        <mxCell id="sRkfl3_Sl9mSZS6yeD2P-8" value="Finds item 1 y" style="rounded=0;whiteSpace=wrap;html=1;" vertex="1" parent="1">
          <mxGeometry x="90" y="380" width="120" height="60" as="geometry" />
        </mxCell>
        <mxCell id="SE4vjiJ-MWA33R_5dS_1-2" value="" style="endArrow=classic;html=1;rounded=0;exitX=0.406;exitY=1.071;exitDx=0;exitDy=0;exitPerimeter=0;" edge="1" parent="1" source="sRkfl3_Sl9mSZS6yeD2P-8">
          <mxGeometry width="50" height="50" relative="1" as="geometry">
            <mxPoint x="150" y="490" as="sourcePoint" />
            <mxPoint x="170" y="480" as="targetPoint" />
          </mxGeometry>
        </mxCell>
        <mxCell id="NNTbiNwH3wWB6xPEeeT0-3" style="edgeStyle=orthogonalEdgeStyle;rounded=0;orthogonalLoop=1;jettySize=auto;html=1;exitX=1;exitY=0.5;exitDx=0;exitDy=0;" edge="1" parent="1" source="NNTbiNwH3wWB6xPEeeT0-1" target="sRkfl3_Sl9mSZS6yeD2P-2">
          <mxGeometry relative="1" as="geometry" />
        </mxCell>
        <mxCell id="NNTbiNwH3wWB6xPEeeT0-1" value="&amp;nbsp;Player reads instructions" style="rounded=0;whiteSpace=wrap;html=1;" vertex="1" parent="1">
          <mxGeometry x="50" y="160" width="120" height="60" as="geometry" />
        </mxCell>
        <mxCell id="NNTbiNwH3wWB6xPEeeT0-7" style="edgeStyle=orthogonalEdgeStyle;rounded=0;orthogonalLoop=1;jettySize=auto;html=1;exitX=0.5;exitY=1;exitDx=0;exitDy=0;" edge="1" parent="1" source="NNTbiNwH3wWB6xPEeeT0-5" target="NNTbiNwH3wWB6xPEeeT0-8">
          <mxGeometry relative="1" as="geometry">
            <mxPoint x="155" y="590" as="targetPoint" />
          </mxGeometry>
        </mxCell>
        <mxCell id="NNTbiNwH3wWB6xPEeeT0-11" style="edgeStyle=orthogonalEdgeStyle;rounded=0;orthogonalLoop=1;jettySize=auto;html=1;exitX=1;exitY=0.5;exitDx=0;exitDy=0;" edge="1" parent="1" source="NNTbiNwH3wWB6xPEeeT0-5">
          <mxGeometry relative="1" as="geometry">
            <mxPoint x="240" y="510" as="targetPoint" />
          </mxGeometry>
        </mxCell>
        <mxCell id="NNTbiNwH3wWB6xPEeeT0-5" value="Finds item 2" style="rounded=0;whiteSpace=wrap;html=1;" vertex="1" parent="1">
          <mxGeometry x="95" y="480" width="120" height="60" as="geometry" />
        </mxCell>
        <mxCell id="NNTbiNwH3wWB6xPEeeT0-12" style="edgeStyle=orthogonalEdgeStyle;rounded=0;orthogonalLoop=1;jettySize=auto;html=1;exitX=1;exitY=0.5;exitDx=0;exitDy=0;" edge="1" parent="1" source="NNTbiNwH3wWB6xPEeeT0-8">
          <mxGeometry relative="1" as="geometry">
            <mxPoint x="270" y="590" as="targetPoint" />
          </mxGeometry>
        </mxCell>
        <mxCell id="NNTbiNwH3wWB6xPEeeT0-8" value="Finds item 3" style="rounded=0;whiteSpace=wrap;html=1;" vertex="1" parent="1">
          <mxGeometry x="95" y="560" width="120" height="60" as="geometry" />
        </mxCell>
        <mxCell id="NNTbiNwH3wWB6xPEeeT0-14" value="Item enters inventory" style="ellipse;whiteSpace=wrap;html=1;" vertex="1" parent="1">
          <mxGeometry x="250" y="380" width="90" height="70" as="geometry" />
        </mxCell>
        <mxCell id="NNTbiNwH3wWB6xPEeeT0-15" value="Item enters inventory" style="ellipse;whiteSpace=wrap;html=1;" vertex="1" parent="1">
          <mxGeometry x="240" y="480" width="90" height="70" as="geometry" />
        </mxCell>
        <mxCell id="NNTbiNwH3wWB6xPEeeT0-16" value="Item enter inventory" style="ellipse;whiteSpace=wrap;html=1;" vertex="1" parent="1">
          <mxGeometry x="270" y="555" width="90" height="70" as="geometry" />
        </mxCell>
        <mxCell id="NNTbiNwH3wWB6xPEeeT0-18" value="" style="endArrow=classic;html=1;rounded=0;exitX=0.5;exitY=1;exitDx=0;exitDy=0;" edge="1" parent="1" source="NNTbiNwH3wWB6xPEeeT0-8">
          <mxGeometry width="50" height="50" relative="1" as="geometry">
            <mxPoint x="180" y="660" as="sourcePoint" />
            <mxPoint x="200" y="660" as="targetPoint" />
          </mxGeometry>
        </mxCell>
        <mxCell id="NNTbiNwH3wWB6xPEeeT0-19" value="The 3 items unlock the exit door" style="rounded=0;whiteSpace=wrap;html=1;" vertex="1" parent="1">
          <mxGeometry x="120" y="660" width="120" height="60" as="geometry" />
        </mxCell>
        <mxCell id="NNTbiNwH3wWB6xPEeeT0-20" value="" style="endArrow=classic;html=1;rounded=0;" edge="1" parent="1">
          <mxGeometry width="50" height="50" relative="1" as="geometry">
            <mxPoint x="170" y="720" as="sourcePoint" />
            <mxPoint x="200" y="750" as="targetPoint" />
            <Array as="points">
              <mxPoint x="170" y="720" />
            </Array>
          </mxGeometry>
        </mxCell>
        <mxCell id="NNTbiNwH3wWB6xPEeeT0-21" value="Exit game" style="rounded=0;whiteSpace=wrap;html=1;" vertex="1" parent="1">
          <mxGeometry x="130" y="990" width="120" height="60" as="geometry" />
        </mxCell>
        <mxCell id="NNTbiNwH3wWB6xPEeeT0-22" value="Player exits under time limit?" style="rounded=0;whiteSpace=wrap;html=1;" vertex="1" parent="1">
          <mxGeometry x="130" y="750" width="120" height="60" as="geometry" />
        </mxCell>
        <mxCell id="NNTbiNwH3wWB6xPEeeT0-23" value="" style="endArrow=classic;html=1;rounded=0;exitX=0.75;exitY=1;exitDx=0;exitDy=0;" edge="1" parent="1" source="NNTbiNwH3wWB6xPEeeT0-22">
          <mxGeometry width="50" height="50" relative="1" as="geometry">
            <mxPoint x="220" y="870" as="sourcePoint" />
            <mxPoint x="280" y="870" as="targetPoint" />
          </mxGeometry>
        </mxCell>
        <mxCell id="NNTbiNwH3wWB6xPEeeT0-24" value="" style="endArrow=classic;html=1;rounded=0;exitX=0.32;exitY=1.041;exitDx=0;exitDy=0;exitPerimeter=0;" edge="1" parent="1" source="NNTbiNwH3wWB6xPEeeT0-22">
          <mxGeometry width="50" height="50" relative="1" as="geometry">
            <mxPoint x="370" y="770" as="sourcePoint" />
            <mxPoint x="150" y="870" as="targetPoint" />
            <Array as="points">
              <mxPoint x="150" y="850" />
            </Array>
          </mxGeometry>
        </mxCell>
        <mxCell id="NNTbiNwH3wWB6xPEeeT0-25" value="IF YES - player wins" style="rounded=0;whiteSpace=wrap;html=1;" vertex="1" parent="1">
          <mxGeometry x="70" y="870" width="120" height="60" as="geometry" />
        </mxCell>
        <mxCell id="NNTbiNwH3wWB6xPEeeT0-26" value="ELSE - player loses" style="rounded=0;whiteSpace=wrap;html=1;" vertex="1" parent="1">
          <mxGeometry x="250" y="870" width="120" height="60" as="geometry" />
        </mxCell>
        <mxCell id="NNTbiNwH3wWB6xPEeeT0-27" value="" style="endArrow=classic;html=1;rounded=0;exitX=0.568;exitY=1.057;exitDx=0;exitDy=0;exitPerimeter=0;" edge="1" parent="1" source="NNTbiNwH3wWB6xPEeeT0-26">
          <mxGeometry width="50" height="50" relative="1" as="geometry">
            <mxPoint x="370" y="890" as="sourcePoint" />
            <mxPoint x="240" y="980" as="targetPoint" />
            <Array as="points">
              <mxPoint x="260" y="960" />
            </Array>
          </mxGeometry>
        </mxCell>
        <mxCell id="NNTbiNwH3wWB6xPEeeT0-28" value="" style="endArrow=classic;html=1;rounded=0;exitX=0.35;exitY=1.047;exitDx=0;exitDy=0;exitPerimeter=0;" edge="1" parent="1" source="NNTbiNwH3wWB6xPEeeT0-25">
          <mxGeometry width="50" height="50" relative="1" as="geometry">
            <mxPoint x="370" y="890" as="sourcePoint" />
            <mxPoint x="150" y="990" as="targetPoint" />
            <Array as="points">
              <mxPoint x="120" y="950" />
            </Array>
          </mxGeometry>
        </mxCell>
      </root>
    </mxGraphModel>
  </diagram>
</mxfile>
